<svg width="135" height="23" viewBox="0 0 135 23" fill="none" xmlns="http://www.w3.org/2000/svg">
<path d="M23.9076 22.8738L22.1235 9.70893L16.0608 22.9116H14.2001L8.1402 9.71423L6.38152 22.8738H0L3.45698 0.014122H9.74635L15.129 12.4527L20.5474 0.014122H26.8364L30.2612 22.8738H23.9076Z" fill="#D43535"/>
<path d="M127.042 11.0894L134.988 0.0218754L127.567 0.0208187L120.063 11.2391L121.05 12.7747L121.067 12.8003L127.57 22.8698H135L127.042 11.0894Z" fill="#3574AC"/>
<path d="M63.0797 11.073L71.0252 0.00551605L63.6048 0.00445366L56.1004 11.2228L57.0876 12.7584L57.1046 12.7839L63.6075 22.8534H71.0377L63.0797 11.073Z" fill="#D43535"/>
<path d="M94.232 5.67726H88.057V22.8879H81.7669V5.67726H75.5912V-7.62939e-06H94.232V5.67726Z" fill="#3574AC"/>
<path d="M51.5349 5.6524H34.8167V0.0137544H51.5349V5.6524Z" fill="#D43535"/>
<path d="M51.5725 22.8742H34.82V17.2356H51.5725V22.8742Z" fill="#D43535"/>
<path d="M44.1402 14.2633H34.82V8.62466H44.1402V14.2633Z" fill="#D43535"/>
<path d="M115.514 5.659H98.7957V0.0203462H115.514V5.659Z" fill="#3574AC"/>
<path d="M115.548 22.8691H98.7957V17.2305H115.548V22.8691Z" fill="#3574AC"/>
<path d="M108.116 14.264H98.7957V8.62533H108.116V14.264Z" fill="#3574AC"/>
</svg>
