<?xml version="1.0" encoding="UTF-8" standalone="no"?>
<!-- Created with Inkscape (http://www.inkscape.org/) -->

<svg
   version="1.1"
   id="svg2"
   width="509.80289"
   height="266.43277"
   viewBox="0 0 509.80289 266.43277"
   xmlns="http://www.w3.org/2000/svg"
   xmlns:svg="http://www.w3.org/2000/svg">
  <defs
     id="defs6" />
  <g
     id="g10"
     transform="matrix(1.3333333,0,0,-1.3333333,-28.896045,473.90159)">
    <path
       d="m 260.51862,355.4262 v -116.091 l -18.682,7.197 v 83.323 l -19.165,-6.425 v -69.514 l -19.164,7.384 v 55.705 l -19.165,-6.425 v -41.896 l -19.165,7.384 v 47.391 l 19.165,6.425 19.165,6.428 19.164,6.425 19.165,6.425 z"
       style="fill:#ffffff;fill-opacity:1;fill-rule:nonzero;stroke:none"
       id="path14" />
    <g
       id="g16"
       transform="translate(89.384034,155.70863)"
       style="fill:#ffffff">
      <path
         d="M 0,0 -5.053,37.286 -22.224,-0.107 h -5.27 L -44.657,37.271 -49.638,0 h -18.074 l 9.791,64.744 h 17.813 L -24.863,29.515 -9.517,64.744 H 8.295 L 17.995,0 Z"
         style="fill:#ffffff;fill-opacity:1;fill-rule:nonzero;stroke:none"
         id="path18" />
    </g>
    <path
       d="m 381.48521,189.08484 22.50358,31.34579 -21.01622,0.003 -21.25436,-31.77289 2.796,-4.34928 0.048,-0.0724 18.418,-28.51906 h 21.044 z"
       style="fill:#ffffff;fill-opacity:1;fill-rule:nonzero;stroke:none;stroke-width:1.00257"
       id="path26" />
    <path
       d="m 200.32874,189.13127 22.50358,31.3458 -21.01622,0.003 -21.25436,-31.77289 2.796,-4.34928 0.048,-0.0724 18.418,-28.51906 h 21.044 z"
       style="fill:#ffffff;fill-opacity:1;fill-rule:nonzero;stroke:none;stroke-width:1.00257"
       id="path26-3" />
    <g
       id="g28"
       transform="matrix(1,0,0,1.0068488,288.55948,204.4133)"
       style="fill:#ffffff">
      <path
         d="M 0,0 H -17.489 V -48.413 H -35.304 V 0 H -52.795 V 15.97 H 0 Z"
         style="fill:#ffffff;fill-opacity:1;fill-rule:nonzero;stroke:none"
         id="path30" />
    </g>
    <path
       d="m 167.63126,204.48365 h -47.35 v 15.97 h 47.35 z"
       style="fill:#ffffff;fill-opacity:1;fill-rule:nonzero;stroke:none"
       id="path32" />
    <path
       d="m 167.73755,155.70735 h -47.447 v 15.97 h 47.447 z"
       style="fill:#ffffff;fill-opacity:1;fill-rule:nonzero;stroke:none"
       id="path34" />
    <path
       d="m 146.68755,180.0955 h -26.397 v 15.97 h 26.397 z"
       style="fill:#ffffff;fill-opacity:1;fill-rule:nonzero;stroke:none"
       id="path36" />
    <path
       d="m 348.835,204.46516 h -47.35 v 15.97 h 47.35 z"
       style="fill:#ffffff;fill-opacity:1;fill-rule:nonzero;stroke:none"
       id="path38" />
    <path
       d="m 348.932,155.722 h -47.447 v 15.97 h 47.447 z"
       style="fill:#ffffff;fill-opacity:1;fill-rule:nonzero;stroke:none"
       id="path40" />
    <path
       d="m 327.882,180.09358 h -26.397 v 15.97 h 26.397 z"
       style="fill:#ffffff;fill-opacity:1;fill-rule:nonzero;stroke:none"
       id="path42" />
  </g>
</svg>
